<svg t="1630045061134" class="icon" viewBox="0 0 1024 1024" version="1.1" xmlns="http://www.w3.org/2000/svg" p-id="2180" width="200" height="200"><path d="M900 519v20c0 48.6-9.5 95.8-28.3 140.1-18.1 42.9-44.1 81.4-77.2 114.4s-71.6 59-114.4 77.2C635.7 889.4 588.6 899 540 899h-57c-48.6 0-95.8-9.5-140.1-28.3-42.9-18.1-81.4-44.1-114.4-77.2s-59-71.6-77.2-114.4C132.5 634.7 123 587.6 123 539v-20h777m0-60H123c-33.1 0-60 26.9-60 60v20c0 232 188 420 420 420h57c232 0 420-188 420-420v-20c0-33.2-26.9-60-60-60z" p-id="2181" fill="#ffffff"></path><path d="M701.9 589.5H102c-8.3 0-15-6.7-15-15s6.7-15 15-15h599.9c8.3 0 15 6.7 15 15s-6.7 15-15 15zM931.9 589.5H772c-8.3 0-15-6.7-15-15s6.7-15 15-15h159.9c8.3 0 15 6.7 15 15s-6.7 15-15 15zM220.7 650h-114c-8.3 0-15-6.7-15-15s6.7-15 15-15h114c8.3 0 15 6.7 15 15s-6.7 15-15 15zM240.7 710h-114c-8.3 0-15-6.7-15-15s6.7-15 15-15h114c8.3 0 15 6.7 15 15s-6.7 15-15 15zM260.7 770h-114c-8.3 0-15-6.7-15-15s6.7-15 15-15h114c8.3 0 15 6.7 15 15s-6.7 15-15 15zM300.7 830h-114c-8.3 0-15-6.7-15-15s6.7-15 15-15h114c8.3 0 15 6.7 15 15s-6.7 15-15 15zM370.7 890h-114c-8.3 0-15-6.7-15-15s6.7-15 15-15h114c8.3 0 15 6.7 15 15s-6.7 15-15 15zM472 436H322c-71.7 0-130-58.3-130-130 0-16.6 13.4-30 30-30h350c16.6 0 30 13.4 30 30 0 71.7-58.3 130-130 130zM258.8 336c11.3 23.6 35.4 40 63.2 40h150c27.9 0 52-16.4 63.2-40H258.8z" p-id="2182" fill="#ffffff"></path><path d="M554 392c-7.2 0-14.5-2.6-20.3-7.9-12.2-11.2-13-30.2-1.8-42.4 3.5-3.8 6.9-8 10.5-12.4 17.4-21.5 39.2-48.3 108-80.5 80.1-37.4 268.4-65.3 276.4-66.5 16.4-2.4 31.6 8.9 34 25.3 2.4 16.4-8.9 31.6-25.3 34-1.9 0.3-187.5 27.8-259.6 61.5-56.3 26.3-71.8 45.4-86.7 63.9-4 4.9-8.1 10-12.8 15.2-6.2 6.5-14.3 9.8-22.4 9.8z" p-id="2183" fill="#ffffff"></path><path d="M466.5 231.7c-14.6-12.6-18.6-41.8 0.7-58.6s6-49.3-2.7-57.1" p-id="2184" fill="#ffffff"></path><path d="M466.5 246.7c-3.5 0-7-1.2-9.8-3.6-11-9.5-17.6-24.6-17.6-40.6s6.4-30.4 18.2-40.7c1.1-1 4.6-4 4.8-11.7 0.2-10.2-5.3-20.7-7.6-23-6.2-5.5-6.7-15-1.1-21.2 5.5-6.2 15-6.7 21.2-1.1 8.6 7.7 17.7 26.2 17.6 45.1-0.1 14-5.3 25.9-15.1 34.4-6.6 5.7-8 13-7.9 18 0 7.1 2.8 14.1 7.2 17.9 6.3 5.4 7 14.9 1.6 21.2-3.1 3.5-7.3 5.3-11.5 5.3z" p-id="2185" fill="#ffffff"></path><path d="M385.1 231.7c-14.6-12.6-18.6-41.8 0.7-58.6s6-49.3-2.7-57.1" p-id="2186" fill="#ffffff"></path><path d="M385.1 246.7c-3.5 0-7-1.2-9.8-3.6-11-9.5-17.6-24.6-17.6-40.6s6.4-30.4 18.2-40.7c1.1-1 4.6-4 4.8-11.7 0.2-10.2-5.3-20.7-7.6-23-6.2-5.5-6.7-15-1.1-21.2 5.5-6.2 15-6.7 21.2-1.1 8.6 7.7 17.7 26.2 17.6 45.1-0.1 14-5.3 25.9-15.1 34.4-6.6 5.7-8 13-7.9 18 0 7.1 2.8 14.1 7.2 17.9 6.3 5.4 7 14.9 1.6 21.2-3.1 3.5-7.3 5.3-11.5 5.3z" p-id="2187" fill="#ffffff"></path><path d="M305.1 231.7c-14.6-12.6-18.6-41.8 0.7-58.6s6-49.3-2.7-57.1" p-id="2188" fill="#ffffff"></path><path d="M305.1 246.7c-3.5 0-7-1.2-9.8-3.6-11-9.5-17.6-24.6-17.6-40.6s6.4-30.4 18.2-40.7c1.1-1 4.6-4 4.8-11.7 0.2-10.2-5.3-20.7-7.6-23-6.2-5.5-6.7-15-1.1-21.2 5.5-6.2 15-6.7 21.2-1.1 8.6 7.7 17.7 26.2 17.6 45.1-0.1 14-5.3 25.9-15.1 34.4-6.6 5.7-8 13-7.9 18 0 7.1 2.8 14.1 7.2 17.9 6.3 5.4 7 14.9 1.6 21.2-3.1 3.5-7.3 5.3-11.5 5.3z" p-id="2189" fill="#ffffff"></path></svg>